<svg xmlns="http://www.w3.org/2000/svg" xmlns:xlink="http://www.w3.org/1999/xlink" width="48" zoomAndPan="magnify" viewBox="0 0 36 36.000001" height="48" preserveAspectRatio="xMidYMid meet" version="1.0"><defs><clipPath id="7b3beeaffe"><path d="M 0.488281 0 L 35.511719 0 L 35.511719 35.027344 L 0.488281 35.027344 Z M 0.488281 0 " clip-rule="nonzero"/></clipPath><clipPath id="a91e5ba7b3"><path d="M 0.488281 5.085938 L 35.226562 5.085938 L 35.226562 29.894531 L 0.488281 29.894531 Z M 0.488281 5.085938 " clip-rule="nonzero"/></clipPath><clipPath id="f648d35f68"><path d="M 34.625 25.039062 L 34.355469 25.039062 L 35.117188 21.398438 C 35.289062 20.636719 35.089844 19.429688 34.722656 18.742188 L 29.65625 9.644531 C 29.261719 8.953125 28.304688 8.386719 27.515625 8.386719 L 17.875 8.386719 C 17.089844 8.386719 16.300781 9.027344 16.15625 9.789062 L 12.171875 28.480469 C 12 29.242188 12.515625 29.882812 13.300781 29.882812 L 17.949219 29.882812 C 18.464844 27.472656 20.828125 25.53125 23.238281 25.53125 C 25.648438 25.53125 27.171875 27.472656 26.679688 29.882812 L 31.917969 29.882812 C 31.96875 29.882812 31.992188 29.882812 32.042969 29.882812 C 32.066406 29.882812 32.117188 29.882812 32.140625 29.882812 L 33.617188 29.882812 C 34.132812 29.882812 34.648438 29.464844 34.773438 28.949219 L 35.410156 25.972656 C 35.511719 25.457031 35.164062 25.039062 34.625 25.039062 Z M 31.648438 18.472656 C 31.574219 18.839844 31.082031 19.160156 30.542969 19.160156 L 18.640625 19.160156 C 18.121094 19.160156 17.777344 18.742188 17.875 18.226562 L 19.351562 11.265625 C 19.449219 10.75 19.992188 10.332031 20.507812 10.332031 L 26.65625 10.332031 C 27.171875 10.332031 27.8125 10.699219 28.082031 11.167969 L 31.328125 16.996094 C 31.597656 17.414062 31.722656 18.078125 31.648438 18.472656 Z M -18.054688 24.03125 L 11.261719 24.03125 L 10.277344 28.628906 L -1.699219 28.628906 L -4.75 25.652344 L -18.398438 25.652344 Z M 12.613281 17.734375 L 11.628906 22.332031 L 0.5625 22.332031 L -2.460938 19.382812 L -20.933594 19.382812 L -20.589844 17.734375 Z M -0.25 13.0625 L -23.515625 13.0625 L -23.171875 11.4375 L 13.941406 11.4375 L 12.957031 16.035156 L 2.800781 16.035156 Z M 1.890625 6.765625 L -26.074219 6.765625 L -25.726562 5.140625 L 15.292969 5.140625 L 14.308594 9.742188 L 4.941406 9.742188 Z M 1.890625 6.765625 " clip-rule="nonzero"/></clipPath><linearGradient x1="107.991378" gradientTransform="matrix(0.245936, 0, 0, 0.245936, -26.072467, -13.229434)" y1="125" x2="249.240974" gradientUnits="userSpaceOnUse" y2="125" id="860754dad7"><stop stop-opacity="1" stop-color="rgb(0%, 63.766479%, 63.565063%)" offset="0"/><stop stop-opacity="1" stop-color="rgb(0%, 63.851929%, 63.372803%)" offset="0.015625"/><stop stop-opacity="1" stop-color="rgb(0%, 64.024353%, 62.988281%)" offset="0.03125"/><stop stop-opacity="1" stop-color="rgb(0%, 64.198303%, 62.60376%)" offset="0.046875"/><stop stop-opacity="1" stop-color="rgb(0%, 64.370728%, 62.217712%)" offset="0.0625"/><stop stop-opacity="1" stop-color="rgb(0%, 64.544678%, 61.833191%)" offset="0.078125"/><stop stop-opacity="1" stop-color="rgb(0%, 64.717102%, 61.448669%)" offset="0.09375"/><stop stop-opacity="1" stop-color="rgb(0%, 64.889526%, 61.064148%)" offset="0.109375"/><stop stop-opacity="1" stop-color="rgb(0%, 65.063477%, 60.678101%)" offset="0.125"/><stop stop-opacity="1" stop-color="rgb(0%, 65.235901%, 60.293579%)" offset="0.140625"/><stop stop-opacity="1" stop-color="rgb(0%, 65.409851%, 59.909058%)" offset="0.15625"/><stop stop-opacity="1" stop-color="rgb(0%, 65.582275%, 59.524536%)" offset="0.171875"/><stop stop-opacity="1" stop-color="rgb(0%, 65.7547%, 59.138489%)" offset="0.1875"/><stop stop-opacity="1" stop-color="rgb(0%, 65.92865%, 58.753967%)" offset="0.203125"/><stop stop-opacity="1" stop-color="rgb(0%, 66.101074%, 58.369446%)" offset="0.21875"/><stop stop-opacity="1" stop-color="rgb(0%, 66.273499%, 57.984924%)" offset="0.234375"/><stop stop-opacity="1" stop-color="rgb(0%, 66.447449%, 57.598877%)" offset="0.25"/><stop stop-opacity="1" stop-color="rgb(0%, 66.619873%, 57.214355%)" offset="0.265625"/><stop stop-opacity="1" stop-color="rgb(0%, 66.793823%, 56.829834%)" offset="0.28125"/><stop stop-opacity="1" stop-color="rgb(0%, 66.966248%, 56.445312%)" offset="0.296875"/><stop stop-opacity="1" stop-color="rgb(0%, 67.138672%, 56.059265%)" offset="0.3125"/><stop stop-opacity="1" stop-color="rgb(0%, 67.312622%, 55.674744%)" offset="0.328125"/><stop stop-opacity="1" stop-color="rgb(0%, 67.485046%, 55.290222%)" offset="0.34375"/><stop stop-opacity="1" stop-color="rgb(0%, 67.658997%, 54.905701%)" offset="0.359375"/><stop stop-opacity="1" stop-color="rgb(0%, 67.831421%, 54.519653%)" offset="0.375"/><stop stop-opacity="1" stop-color="rgb(0%, 68.003845%, 54.135132%)" offset="0.390625"/><stop stop-opacity="1" stop-color="rgb(0%, 68.177795%, 53.75061%)" offset="0.40625"/><stop stop-opacity="1" stop-color="rgb(0%, 68.35022%, 53.366089%)" offset="0.421875"/><stop stop-opacity="1" stop-color="rgb(0%, 68.52417%, 52.980042%)" offset="0.4375"/><stop stop-opacity="1" stop-color="rgb(0%, 68.696594%, 52.59552%)" offset="0.453125"/><stop stop-opacity="1" stop-color="rgb(0%, 68.869019%, 52.210999%)" offset="0.46875"/><stop stop-opacity="1" stop-color="rgb(0%, 69.042969%, 51.826477%)" offset="0.484375"/><stop stop-opacity="1" stop-color="rgb(0%, 69.215393%, 51.44043%)" offset="0.5"/><stop stop-opacity="1" stop-color="rgb(0%, 69.389343%, 51.055908%)" offset="0.515625"/><stop stop-opacity="1" stop-color="rgb(0%, 69.561768%, 50.671387%)" offset="0.53125"/><stop stop-opacity="1" stop-color="rgb(0%, 69.734192%, 50.286865%)" offset="0.546875"/><stop stop-opacity="1" stop-color="rgb(0%, 69.908142%, 49.900818%)" offset="0.5625"/><stop stop-opacity="1" stop-color="rgb(0%, 70.080566%, 49.516296%)" offset="0.578125"/><stop stop-opacity="1" stop-color="rgb(0%, 70.254517%, 49.131775%)" offset="0.59375"/><stop stop-opacity="1" stop-color="rgb(0%, 70.426941%, 48.747253%)" offset="0.609375"/><stop stop-opacity="1" stop-color="rgb(0%, 70.599365%, 48.361206%)" offset="0.625"/><stop stop-opacity="1" stop-color="rgb(0%, 70.773315%, 47.976685%)" offset="0.640625"/><stop stop-opacity="1" stop-color="rgb(0%, 70.94574%, 47.592163%)" offset="0.65625"/><stop stop-opacity="1" stop-color="rgb(0%, 71.11969%, 47.207642%)" offset="0.671875"/><stop stop-opacity="1" stop-color="rgb(0%, 71.292114%, 46.821594%)" offset="0.6875"/><stop stop-opacity="1" stop-color="rgb(0%, 71.464539%, 46.437073%)" offset="0.703125"/><stop stop-opacity="1" stop-color="rgb(0%, 71.638489%, 46.052551%)" offset="0.71875"/><stop stop-opacity="1" stop-color="rgb(0%, 71.810913%, 45.666504%)" offset="0.734375"/><stop stop-opacity="1" stop-color="rgb(0%, 71.984863%, 45.281982%)" offset="0.75"/><stop stop-opacity="1" stop-color="rgb(0%, 72.157288%, 44.897461%)" offset="0.765625"/><stop stop-opacity="1" stop-color="rgb(0%, 72.329712%, 44.512939%)" offset="0.78125"/><stop stop-opacity="1" stop-color="rgb(0%, 72.503662%, 44.126892%)" offset="0.796875"/><stop stop-opacity="1" stop-color="rgb(0%, 72.676086%, 43.742371%)" offset="0.8125"/><stop stop-opacity="1" stop-color="rgb(0%, 72.850037%, 43.357849%)" offset="0.828125"/><stop stop-opacity="1" stop-color="rgb(0%, 73.022461%, 42.973328%)" offset="0.84375"/><stop stop-opacity="1" stop-color="rgb(0%, 73.194885%, 42.58728%)" offset="0.859375"/><stop stop-opacity="1" stop-color="rgb(0%, 73.368835%, 42.202759%)" offset="0.875"/><stop stop-opacity="1" stop-color="rgb(0%, 73.54126%, 41.818237%)" offset="0.890625"/><stop stop-opacity="1" stop-color="rgb(0%, 73.71521%, 41.433716%)" offset="0.90625"/><stop stop-opacity="1" stop-color="rgb(0%, 73.887634%, 41.047668%)" offset="0.921875"/><stop stop-opacity="1" stop-color="rgb(0%, 74.060059%, 40.663147%)" offset="0.9375"/><stop stop-opacity="1" stop-color="rgb(0%, 74.234009%, 40.278625%)" offset="0.953125"/><stop stop-opacity="1" stop-color="rgb(0%, 74.406433%, 39.894104%)" offset="0.96875"/><stop stop-opacity="1" stop-color="rgb(0%, 74.580383%, 39.508057%)" offset="0.984375"/><stop stop-opacity="1" stop-color="rgb(0%, 74.752808%, 39.123535%)" offset="1"/></linearGradient></defs><g clip-path="url(#7b3beeaffe)"><path fill="#ffffff" d="M 0.488281 0 L 35.511719 0 L 35.511719 35.027344 L 0.488281 35.027344 Z M 0.488281 0 " fill-opacity="1" fill-rule="nonzero"/><path fill="#ffffff" d="M 0.488281 0 L 35.511719 0 L 35.511719 35.027344 L 0.488281 35.027344 Z M 0.488281 0 " fill-opacity="1" fill-rule="nonzero"/></g><g clip-path="url(#a91e5ba7b3)"><g clip-path="url(#f648d35f68)"><path fill="url(#860754dad7)" d="M 0.488281 5.140625 L 0.488281 29.882812 L 35.226562 29.882812 L 35.226562 5.140625 Z M 0.488281 5.140625 " fill-rule="nonzero"/></g></g></svg>