<svg xmlns="http://www.w3.org/2000/svg" xmlns:xlink="http://www.w3.org/1999/xlink" width="354" zoomAndPan="magnify" viewBox="0 0 265.5 50.999998" height="68" preserveAspectRatio="xMidYMid meet" version="1.0"><defs><g/><clipPath id="0c663ec7da"><path d="M 0 0.046875 L 265 0.046875 L 265 50.949219 L 0 50.949219 Z M 0 0.046875 " clip-rule="nonzero"/></clipPath><clipPath id="7a22ed295d"><path d="M 138.886719 1.074219 L 260 1.074219 L 260 49.734375 L 138.886719 49.734375 Z M 138.886719 1.074219 " clip-rule="nonzero"/></clipPath><clipPath id="3dcf523ff2"><path d="M 258.160156 40.285156 L 257.628906 40.285156 L 259.128906 33.132812 C 259.464844 31.636719 259.078125 29.269531 258.355469 27.914062 L 248.398438 10.03125 C 247.625 8.679688 245.742188 7.566406 244.195312 7.566406 L 225.25 7.566406 C 223.703125 7.566406 222.15625 8.824219 221.867188 10.324219 L 214.039062 47.050781 C 213.699219 48.550781 214.714844 49.808594 216.261719 49.808594 L 225.394531 49.808594 C 226.410156 45.070312 231.050781 41.253906 235.785156 41.253906 C 240.523438 41.253906 243.519531 45.070312 242.550781 49.808594 L 252.84375 49.808594 C 252.941406 49.808594 252.992188 49.808594 253.085938 49.808594 C 253.136719 49.808594 253.230469 49.808594 253.28125 49.808594 L 256.179688 49.808594 C 257.195312 49.808594 258.210938 48.984375 258.453125 47.972656 L 259.707031 42.121094 C 259.902344 41.109375 259.226562 40.285156 258.160156 40.285156 Z M 252.3125 27.382812 C 252.167969 28.109375 251.203125 28.734375 250.140625 28.734375 L 226.75 28.734375 C 225.734375 28.734375 225.054688 27.914062 225.25 26.898438 L 228.148438 13.222656 C 228.34375 12.207031 229.40625 11.386719 230.421875 11.386719 L 242.503906 11.386719 C 243.519531 11.386719 244.773438 12.109375 245.304688 13.03125 L 251.683594 24.484375 C 252.21875 25.304688 252.457031 26.609375 252.3125 27.382812 Z M 154.640625 38.304688 L 212.25 38.304688 L 210.316406 47.34375 L 186.78125 47.34375 L 180.789062 41.496094 L 153.964844 41.496094 Z M 214.90625 25.933594 L 212.972656 34.96875 L 191.226562 34.96875 L 185.28125 29.171875 L 148.988281 29.171875 L 149.664062 25.933594 Z M 189.632812 16.75 L 143.914062 16.75 L 144.589844 13.5625 L 217.515625 13.5625 L 215.585938 22.597656 L 195.625 22.597656 Z M 193.835938 4.378906 L 138.886719 4.378906 L 139.5625 1.1875 L 220.175781 1.1875 L 218.242188 10.226562 L 199.828125 10.226562 Z M 193.835938 4.378906 " clip-rule="nonzero"/></clipPath><linearGradient x1="0.00000124359" gradientTransform="matrix(0.483284, 0, 0, 0.483284, 138.887078, -34.912456)" y1="125" x2="250.399994" gradientUnits="userSpaceOnUse" y2="125" id="22c1d30030"><stop stop-opacity="1" stop-color="rgb(0%, 55.299377%, 82.398987%)" offset="0"/><stop stop-opacity="1" stop-color="rgb(0%, 55.375671%, 82.228088%)" offset="0.0078125"/><stop stop-opacity="1" stop-color="rgb(0%, 55.528259%, 81.887817%)" offset="0.015625"/><stop stop-opacity="1" stop-color="rgb(0%, 55.682373%, 81.546021%)" offset="0.0234375"/><stop stop-opacity="1" stop-color="rgb(0%, 55.834961%, 81.204224%)" offset="0.03125"/><stop stop-opacity="1" stop-color="rgb(0%, 55.989075%, 80.863953%)" offset="0.0390625"/><stop stop-opacity="1" stop-color="rgb(0%, 56.141663%, 80.522156%)" offset="0.046875"/><stop stop-opacity="1" stop-color="rgb(0%, 56.295776%, 80.181885%)" offset="0.0546875"/><stop stop-opacity="1" stop-color="rgb(0%, 56.448364%, 79.840088%)" offset="0.0625"/><stop stop-opacity="1" stop-color="rgb(0%, 56.602478%, 79.498291%)" offset="0.0703125"/><stop stop-opacity="1" stop-color="rgb(0%, 56.756592%, 79.15802%)" offset="0.078125"/><stop stop-opacity="1" stop-color="rgb(0%, 56.90918%, 78.816223%)" offset="0.0859375"/><stop stop-opacity="1" stop-color="rgb(0%, 57.063293%, 78.475952%)" offset="0.09375"/><stop stop-opacity="1" stop-color="rgb(0%, 57.215881%, 78.134155%)" offset="0.101562"/><stop stop-opacity="1" stop-color="rgb(0%, 57.369995%, 77.793884%)" offset="0.109375"/><stop stop-opacity="1" stop-color="rgb(0%, 57.522583%, 77.452087%)" offset="0.117187"/><stop stop-opacity="1" stop-color="rgb(0%, 57.676697%, 77.110291%)" offset="0.125"/><stop stop-opacity="1" stop-color="rgb(0%, 57.829285%, 76.77002%)" offset="0.132812"/><stop stop-opacity="1" stop-color="rgb(0%, 57.983398%, 76.428223%)" offset="0.140625"/><stop stop-opacity="1" stop-color="rgb(0%, 58.135986%, 76.087952%)" offset="0.148437"/><stop stop-opacity="1" stop-color="rgb(0%, 58.2901%, 75.746155%)" offset="0.15625"/><stop stop-opacity="1" stop-color="rgb(0%, 58.442688%, 75.404358%)" offset="0.164062"/><stop stop-opacity="1" stop-color="rgb(0%, 58.596802%, 75.064087%)" offset="0.171875"/><stop stop-opacity="1" stop-color="rgb(0%, 58.74939%, 74.72229%)" offset="0.179687"/><stop stop-opacity="1" stop-color="rgb(0%, 58.903503%, 74.382019%)" offset="0.1875"/><stop stop-opacity="1" stop-color="rgb(0%, 59.056091%, 74.040222%)" offset="0.195312"/><stop stop-opacity="1" stop-color="rgb(0%, 59.210205%, 73.698425%)" offset="0.203125"/><stop stop-opacity="1" stop-color="rgb(0%, 59.362793%, 73.358154%)" offset="0.210937"/><stop stop-opacity="1" stop-color="rgb(0%, 59.516907%, 73.016357%)" offset="0.21875"/><stop stop-opacity="1" stop-color="rgb(0%, 59.669495%, 72.676086%)" offset="0.226562"/><stop stop-opacity="1" stop-color="rgb(0%, 59.823608%, 72.33429%)" offset="0.234375"/><stop stop-opacity="1" stop-color="rgb(0%, 59.976196%, 71.992493%)" offset="0.242187"/><stop stop-opacity="1" stop-color="rgb(0%, 60.13031%, 71.652222%)" offset="0.25"/><stop stop-opacity="1" stop-color="rgb(0%, 60.282898%, 71.310425%)" offset="0.257812"/><stop stop-opacity="1" stop-color="rgb(0%, 60.437012%, 70.970154%)" offset="0.265625"/><stop stop-opacity="1" stop-color="rgb(0%, 60.5896%, 70.628357%)" offset="0.273438"/><stop stop-opacity="1" stop-color="rgb(0%, 60.743713%, 70.288086%)" offset="0.28125"/><stop stop-opacity="1" stop-color="rgb(0%, 60.896301%, 69.946289%)" offset="0.289062"/><stop stop-opacity="1" stop-color="rgb(0%, 61.050415%, 69.604492%)" offset="0.296875"/><stop stop-opacity="1" stop-color="rgb(0%, 61.203003%, 69.264221%)" offset="0.304688"/><stop stop-opacity="1" stop-color="rgb(0%, 61.357117%, 68.922424%)" offset="0.3125"/><stop stop-opacity="1" stop-color="rgb(0%, 61.509705%, 68.582153%)" offset="0.320313"/><stop stop-opacity="1" stop-color="rgb(0%, 61.663818%, 68.240356%)" offset="0.328125"/><stop stop-opacity="1" stop-color="rgb(0%, 61.816406%, 67.89856%)" offset="0.335937"/><stop stop-opacity="1" stop-color="rgb(0%, 61.97052%, 67.558289%)" offset="0.34375"/><stop stop-opacity="1" stop-color="rgb(0%, 62.123108%, 67.216492%)" offset="0.351562"/><stop stop-opacity="1" stop-color="rgb(0%, 62.277222%, 66.876221%)" offset="0.359375"/><stop stop-opacity="1" stop-color="rgb(0%, 62.42981%, 66.534424%)" offset="0.367188"/><stop stop-opacity="1" stop-color="rgb(0%, 62.583923%, 66.192627%)" offset="0.375"/><stop stop-opacity="1" stop-color="rgb(0%, 62.738037%, 65.852356%)" offset="0.382812"/><stop stop-opacity="1" stop-color="rgb(0%, 62.890625%, 65.510559%)" offset="0.390625"/><stop stop-opacity="1" stop-color="rgb(0%, 63.044739%, 65.170288%)" offset="0.398438"/><stop stop-opacity="1" stop-color="rgb(0%, 63.197327%, 64.828491%)" offset="0.40625"/><stop stop-opacity="1" stop-color="rgb(0%, 63.35144%, 64.48822%)" offset="0.414063"/><stop stop-opacity="1" stop-color="rgb(0%, 63.504028%, 64.146423%)" offset="0.421875"/><stop stop-opacity="1" stop-color="rgb(0%, 63.658142%, 63.804626%)" offset="0.429687"/><stop stop-opacity="1" stop-color="rgb(0%, 63.81073%, 63.464355%)" offset="0.4375"/><stop stop-opacity="1" stop-color="rgb(0%, 63.964844%, 63.122559%)" offset="0.445312"/><stop stop-opacity="1" stop-color="rgb(0%, 64.117432%, 62.782288%)" offset="0.453125"/><stop stop-opacity="1" stop-color="rgb(0%, 64.271545%, 62.440491%)" offset="0.460938"/><stop stop-opacity="1" stop-color="rgb(0%, 64.424133%, 62.098694%)" offset="0.46875"/><stop stop-opacity="1" stop-color="rgb(0%, 64.578247%, 61.758423%)" offset="0.476562"/><stop stop-opacity="1" stop-color="rgb(0%, 64.730835%, 61.416626%)" offset="0.484375"/><stop stop-opacity="1" stop-color="rgb(0%, 64.884949%, 61.076355%)" offset="0.492188"/><stop stop-opacity="1" stop-color="rgb(0%, 65.037537%, 60.734558%)" offset="0.5"/><stop stop-opacity="1" stop-color="rgb(0%, 65.19165%, 60.392761%)" offset="0.507812"/><stop stop-opacity="1" stop-color="rgb(0%, 65.344238%, 60.05249%)" offset="0.515625"/><stop stop-opacity="1" stop-color="rgb(0%, 65.498352%, 59.710693%)" offset="0.523438"/><stop stop-opacity="1" stop-color="rgb(0%, 65.65094%, 59.370422%)" offset="0.53125"/><stop stop-opacity="1" stop-color="rgb(0%, 65.805054%, 59.028625%)" offset="0.539063"/><stop stop-opacity="1" stop-color="rgb(0%, 65.957642%, 58.688354%)" offset="0.546875"/><stop stop-opacity="1" stop-color="rgb(0%, 66.111755%, 58.346558%)" offset="0.554688"/><stop stop-opacity="1" stop-color="rgb(0%, 66.264343%, 58.004761%)" offset="0.5625"/><stop stop-opacity="1" stop-color="rgb(0%, 66.418457%, 57.66449%)" offset="0.570312"/><stop stop-opacity="1" stop-color="rgb(0%, 66.571045%, 57.322693%)" offset="0.578125"/><stop stop-opacity="1" stop-color="rgb(0%, 66.725159%, 56.982422%)" offset="0.585938"/><stop stop-opacity="1" stop-color="rgb(0%, 66.877747%, 56.640625%)" offset="0.59375"/><stop stop-opacity="1" stop-color="rgb(0%, 67.03186%, 56.298828%)" offset="0.601562"/><stop stop-opacity="1" stop-color="rgb(0%, 67.184448%, 55.958557%)" offset="0.609375"/><stop stop-opacity="1" stop-color="rgb(0%, 67.338562%, 55.61676%)" offset="0.617188"/><stop stop-opacity="1" stop-color="rgb(0%, 67.49115%, 55.276489%)" offset="0.625"/><stop stop-opacity="1" stop-color="rgb(0%, 67.645264%, 54.934692%)" offset="0.632813"/><stop stop-opacity="1" stop-color="rgb(0%, 67.797852%, 54.592896%)" offset="0.640625"/><stop stop-opacity="1" stop-color="rgb(0%, 67.951965%, 54.252625%)" offset="0.648438"/><stop stop-opacity="1" stop-color="rgb(0%, 68.104553%, 53.910828%)" offset="0.65625"/><stop stop-opacity="1" stop-color="rgb(0%, 68.258667%, 53.570557%)" offset="0.664062"/><stop stop-opacity="1" stop-color="rgb(0%, 68.411255%, 53.22876%)" offset="0.671875"/><stop stop-opacity="1" stop-color="rgb(0%, 68.565369%, 52.886963%)" offset="0.679688"/><stop stop-opacity="1" stop-color="rgb(0%, 68.719482%, 52.546692%)" offset="0.6875"/><stop stop-opacity="1" stop-color="rgb(0%, 68.87207%, 52.204895%)" offset="0.695312"/><stop stop-opacity="1" stop-color="rgb(0%, 69.026184%, 51.864624%)" offset="0.703125"/><stop stop-opacity="1" stop-color="rgb(0%, 69.178772%, 51.522827%)" offset="0.710938"/><stop stop-opacity="1" stop-color="rgb(0%, 69.332886%, 51.182556%)" offset="0.71875"/><stop stop-opacity="1" stop-color="rgb(0%, 69.485474%, 50.840759%)" offset="0.726563"/><stop stop-opacity="1" stop-color="rgb(0%, 69.639587%, 50.498962%)" offset="0.734375"/><stop stop-opacity="1" stop-color="rgb(0%, 69.792175%, 50.158691%)" offset="0.742188"/><stop stop-opacity="1" stop-color="rgb(0%, 69.946289%, 49.816895%)" offset="0.75"/><stop stop-opacity="1" stop-color="rgb(0%, 70.098877%, 49.476624%)" offset="0.757812"/><stop stop-opacity="1" stop-color="rgb(0%, 70.252991%, 49.134827%)" offset="0.765625"/><stop stop-opacity="1" stop-color="rgb(0%, 70.405579%, 48.79303%)" offset="0.773437"/><stop stop-opacity="1" stop-color="rgb(0%, 70.559692%, 48.452759%)" offset="0.78125"/><stop stop-opacity="1" stop-color="rgb(0%, 70.71228%, 48.110962%)" offset="0.789062"/><stop stop-opacity="1" stop-color="rgb(0%, 70.866394%, 47.770691%)" offset="0.796875"/><stop stop-opacity="1" stop-color="rgb(0%, 71.018982%, 47.428894%)" offset="0.804688"/><stop stop-opacity="1" stop-color="rgb(0%, 71.173096%, 47.087097%)" offset="0.8125"/><stop stop-opacity="1" stop-color="rgb(0%, 71.325684%, 46.746826%)" offset="0.820312"/><stop stop-opacity="1" stop-color="rgb(0%, 71.479797%, 46.405029%)" offset="0.828125"/><stop stop-opacity="1" stop-color="rgb(0%, 71.632385%, 46.064758%)" offset="0.835938"/><stop stop-opacity="1" stop-color="rgb(0%, 71.786499%, 45.722961%)" offset="0.84375"/><stop stop-opacity="1" stop-color="rgb(0%, 71.939087%, 45.38269%)" offset="0.851562"/><stop stop-opacity="1" stop-color="rgb(0%, 72.093201%, 45.040894%)" offset="0.859375"/><stop stop-opacity="1" stop-color="rgb(0%, 72.245789%, 44.699097%)" offset="0.867187"/><stop stop-opacity="1" stop-color="rgb(0%, 72.399902%, 44.358826%)" offset="0.875"/><stop stop-opacity="1" stop-color="rgb(0%, 72.55249%, 44.017029%)" offset="0.882812"/><stop stop-opacity="1" stop-color="rgb(0%, 72.706604%, 43.676758%)" offset="0.890625"/><stop stop-opacity="1" stop-color="rgb(0%, 72.859192%, 43.334961%)" offset="0.898438"/><stop stop-opacity="1" stop-color="rgb(0%, 73.013306%, 42.993164%)" offset="0.90625"/><stop stop-opacity="1" stop-color="rgb(0%, 73.165894%, 42.652893%)" offset="0.914062"/><stop stop-opacity="1" stop-color="rgb(0%, 73.320007%, 42.311096%)" offset="0.921875"/><stop stop-opacity="1" stop-color="rgb(0%, 73.472595%, 41.970825%)" offset="0.929688"/><stop stop-opacity="1" stop-color="rgb(0%, 73.626709%, 41.629028%)" offset="0.9375"/><stop stop-opacity="1" stop-color="rgb(0%, 73.779297%, 41.287231%)" offset="0.945312"/><stop stop-opacity="1" stop-color="rgb(0%, 73.933411%, 40.94696%)" offset="0.953125"/><stop stop-opacity="1" stop-color="rgb(0%, 74.085999%, 40.605164%)" offset="0.960937"/><stop stop-opacity="1" stop-color="rgb(0%, 74.240112%, 40.264893%)" offset="0.96875"/><stop stop-opacity="1" stop-color="rgb(0%, 74.3927%, 39.923096%)" offset="0.976562"/><stop stop-opacity="1" stop-color="rgb(0%, 74.546814%, 39.582825%)" offset="0.984375"/><stop stop-opacity="1" stop-color="rgb(0%, 74.699402%, 39.241028%)" offset="0.992188"/><stop stop-opacity="1" stop-color="rgb(0%, 74.838257%, 38.934326%)" offset="1"/></linearGradient><clipPath id="5c2bd9c8fc"><path d="M 102 27 L 122 27 L 122 50.949219 L 102 50.949219 Z M 102 27 " clip-rule="nonzero"/></clipPath></defs><g clip-path="url(#0c663ec7da)"><path fill="#ffffff" d="M 0 0.046875 L 265 0.046875 L 265 50.953125 L 0 50.953125 Z M 0 0.046875 " fill-opacity="1" fill-rule="nonzero"/><path fill="#ffffff" d="M 0 0.046875 L 265 0.046875 L 265 50.953125 L 0 50.953125 Z M 0 0.046875 " fill-opacity="1" fill-rule="nonzero"/></g><g clip-path="url(#7a22ed295d)"><g clip-path="url(#3dcf523ff2)"><path fill="url(#22c1d30030)" d="M 138.886719 1.1875 L 138.886719 49.734375 L 259.902344 49.734375 L 259.902344 1.1875 Z M 138.886719 1.1875 " fill-rule="nonzero"/></g></g><g fill="#008dd2" fill-opacity="1"><g transform="translate(57.34658, 20.230937)"><g><path d="M 9.71875 0 L 5.859375 0 L 5.859375 -15.171875 L 0.375 -15.171875 L 0.375 -18.90625 L 15.203125 -18.90625 L 15.203125 -15.171875 L 9.71875 -15.171875 Z M 9.71875 0 "/></g></g></g><g fill="#008dd2" fill-opacity="1"><g transform="translate(72.915755, 20.230937)"><g><path d="M 9.453125 -9.71875 L 16.765625 0 L 11.96875 0 L 5.75 -8.484375 L 5.75 0 L 1.890625 0 L 1.890625 -18.90625 L 5.75 -18.90625 L 5.75 -10.71875 L 11.65625 -18.90625 L 16.234375 -18.90625 Z M 9.453125 -9.71875 "/></g></g></g><g fill="#008dd2" fill-opacity="1"><g transform="translate(7.486649, 46.193504)"><g><path d="M 10.171875 0.34375 C 8.515625 0.34375 6.972656 -0.0859375 5.546875 -0.953125 C 4.128906 -1.828125 3 -3.015625 2.15625 -4.515625 C 1.3125 -6.023438 0.890625 -7.671875 0.890625 -9.453125 C 0.890625 -11.234375 1.3125 -12.875 2.15625 -14.375 C 3 -15.875 4.128906 -17.0625 5.546875 -17.9375 C 6.972656 -18.8125 8.515625 -19.25 10.171875 -19.25 C 11.691406 -19.25 13.046875 -18.910156 14.234375 -18.234375 C 15.421875 -17.554688 16.394531 -16.679688 17.15625 -15.609375 C 17.925781 -14.546875 18.453125 -13.398438 18.734375 -12.171875 L 14.71875 -12.171875 C 14.46875 -13.078125 13.945312 -13.863281 13.15625 -14.53125 C 12.363281 -15.195312 11.367188 -15.53125 10.171875 -15.53125 C 9.203125 -15.53125 8.300781 -15.265625 7.46875 -14.734375 C 6.644531 -14.203125 5.984375 -13.472656 5.484375 -12.546875 C 4.992188 -11.617188 4.75 -10.585938 4.75 -9.453125 C 4.75 -8.316406 4.992188 -7.285156 5.484375 -6.359375 C 5.984375 -5.429688 6.644531 -4.703125 7.46875 -4.171875 C 8.300781 -3.640625 9.203125 -3.375 10.171875 -3.375 C 11.367188 -3.375 12.363281 -3.703125 13.15625 -4.359375 C 13.957031 -5.015625 14.519531 -5.796875 14.84375 -6.703125 L 18.875 -6.703125 C 18.582031 -5.492188 18.050781 -4.351562 17.28125 -3.28125 C 16.519531 -2.207031 15.53125 -1.332031 14.3125 -0.65625 C 13.101562 0.0078125 11.722656 0.34375 10.171875 0.34375 Z M 10.171875 0.34375 "/></g></g></g><g fill="#008dd2" fill-opacity="1"><g transform="translate(27.103268, 46.193504)"><g><path d="M 13.234375 -10.046875 C 14.054688 -9.734375 14.789062 -9.191406 15.4375 -8.421875 C 16.09375 -7.648438 16.421875 -6.644531 16.421875 -5.40625 C 16.421875 -4.414062 16.15625 -3.503906 15.625 -2.671875 C 15.101562 -1.847656 14.367188 -1.195312 13.421875 -0.71875 C 12.484375 -0.238281 11.421875 0 10.234375 0 L 1.890625 0 L 1.890625 -18.90625 L 9.90625 -18.90625 C 11.019531 -18.90625 12.015625 -18.675781 12.890625 -18.21875 C 13.765625 -17.769531 14.441406 -17.160156 14.921875 -16.390625 C 15.410156 -15.628906 15.65625 -14.78125 15.65625 -13.84375 C 15.65625 -12.84375 15.410156 -12.015625 14.921875 -11.359375 C 14.441406 -10.710938 13.878906 -10.273438 13.234375 -10.046875 Z M 5.75 -15.609375 L 5.75 -11.421875 L 9.453125 -11.421875 C 10.128906 -11.421875 10.6875 -11.617188 11.125 -12.015625 C 11.570312 -12.410156 11.796875 -12.914062 11.796875 -13.53125 C 11.796875 -14.125 11.570312 -14.617188 11.125 -15.015625 C 10.675781 -15.410156 10.117188 -15.609375 9.453125 -15.609375 Z M 9.796875 -3.296875 C 10.609375 -3.296875 11.269531 -3.523438 11.78125 -3.984375 C 12.300781 -4.441406 12.5625 -5.039062 12.5625 -5.78125 C 12.5625 -6.5 12.300781 -7.085938 11.78125 -7.546875 C 11.269531 -8.003906 10.609375 -8.234375 9.796875 -8.234375 L 5.75 -8.234375 L 5.75 -3.296875 Z M 9.796875 -3.296875 "/></g></g></g><g fill="#008dd2" fill-opacity="1"><g transform="translate(44.34538, 46.193504)"><g><path d="M 10.171875 0.34375 C 8.515625 0.34375 6.972656 -0.0859375 5.546875 -0.953125 C 4.128906 -1.828125 3 -3.015625 2.15625 -4.515625 C 1.3125 -6.023438 0.890625 -7.671875 0.890625 -9.453125 C 0.890625 -11.234375 1.3125 -12.875 2.15625 -14.375 C 3 -15.875 4.128906 -17.0625 5.546875 -17.9375 C 6.972656 -18.8125 8.515625 -19.25 10.171875 -19.25 C 11.828125 -19.25 13.363281 -18.8125 14.78125 -17.9375 C 16.207031 -17.0625 17.34375 -15.875 18.1875 -14.375 C 19.039062 -12.875 19.46875 -11.234375 19.46875 -9.453125 C 19.46875 -7.671875 19.039062 -6.023438 18.1875 -4.515625 C 17.34375 -3.015625 16.207031 -1.828125 14.78125 -0.953125 C 13.363281 -0.0859375 11.828125 0.34375 10.171875 0.34375 Z M 10.171875 -3.375 C 11.148438 -3.375 12.050781 -3.640625 12.875 -4.171875 C 13.707031 -4.703125 14.367188 -5.429688 14.859375 -6.359375 C 15.359375 -7.285156 15.609375 -8.316406 15.609375 -9.453125 C 15.609375 -10.585938 15.359375 -11.617188 14.859375 -12.546875 C 14.367188 -13.472656 13.707031 -14.203125 12.875 -14.734375 C 12.050781 -15.265625 11.148438 -15.53125 10.171875 -15.53125 C 9.203125 -15.53125 8.300781 -15.265625 7.46875 -14.734375 C 6.644531 -14.203125 5.984375 -13.472656 5.484375 -12.546875 C 4.992188 -11.617188 4.75 -10.585938 4.75 -9.453125 C 4.75 -8.316406 4.992188 -7.285156 5.484375 -6.359375 C 5.984375 -5.429688 6.644531 -4.703125 7.46875 -4.171875 C 8.300781 -3.640625 9.203125 -3.375 10.171875 -3.375 Z M 10.171875 -3.375 "/></g></g></g><g fill="#008dd2" fill-opacity="1"><g transform="translate(64.690531, 46.193504)"><g><path d="M 9.984375 -11.609375 C 11.171875 -11.609375 12.238281 -11.351562 13.1875 -10.84375 C 14.132812 -10.332031 14.875 -9.632812 15.40625 -8.75 C 15.9375 -7.863281 16.203125 -6.882812 16.203125 -5.8125 C 16.203125 -4.726562 15.9375 -3.742188 15.40625 -2.859375 C 14.875 -1.972656 14.132812 -1.273438 13.1875 -0.765625 C 12.238281 -0.253906 11.171875 0 9.984375 0 L 1.890625 0 L 1.890625 -18.90625 L 14.875 -18.90625 L 14.875 -15.4375 L 5.75 -15.4375 L 5.75 -11.609375 Z M 9.859375 -3.453125 C 10.578125 -3.453125 11.171875 -3.671875 11.640625 -4.109375 C 12.109375 -4.554688 12.34375 -5.125 12.34375 -5.8125 C 12.34375 -6.488281 12.109375 -7.046875 11.640625 -7.484375 C 11.171875 -7.929688 10.578125 -8.15625 9.859375 -8.15625 L 5.75 -8.15625 L 5.75 -3.453125 Z M 9.859375 -3.453125 "/></g></g></g><g fill="#008dd2" fill-opacity="1"><g transform="translate(81.716785, 46.193504)"><g><path d="M 10.171875 0.34375 C 8.515625 0.34375 6.972656 -0.0859375 5.546875 -0.953125 C 4.128906 -1.828125 3 -3.015625 2.15625 -4.515625 C 1.3125 -6.023438 0.890625 -7.671875 0.890625 -9.453125 C 0.890625 -11.234375 1.3125 -12.875 2.15625 -14.375 C 3 -15.875 4.128906 -17.0625 5.546875 -17.9375 C 6.972656 -18.8125 8.515625 -19.25 10.171875 -19.25 C 11.828125 -19.25 13.363281 -18.8125 14.78125 -17.9375 C 16.207031 -17.0625 17.34375 -15.875 18.1875 -14.375 C 19.039062 -12.875 19.46875 -11.234375 19.46875 -9.453125 C 19.46875 -7.671875 19.039062 -6.023438 18.1875 -4.515625 C 17.34375 -3.015625 16.207031 -1.828125 14.78125 -0.953125 C 13.363281 -0.0859375 11.828125 0.34375 10.171875 0.34375 Z M 10.171875 -3.375 C 11.148438 -3.375 12.050781 -3.640625 12.875 -4.171875 C 13.707031 -4.703125 14.367188 -5.429688 14.859375 -6.359375 C 15.359375 -7.285156 15.609375 -8.316406 15.609375 -9.453125 C 15.609375 -10.585938 15.359375 -11.617188 14.859375 -12.546875 C 14.367188 -13.472656 13.707031 -14.203125 12.875 -14.734375 C 12.050781 -15.265625 11.148438 -15.53125 10.171875 -15.53125 C 9.203125 -15.53125 8.300781 -15.265625 7.46875 -14.734375 C 6.644531 -14.203125 5.984375 -13.472656 5.484375 -12.546875 C 4.992188 -11.617188 4.75 -10.585938 4.75 -9.453125 C 4.75 -8.316406 4.992188 -7.285156 5.484375 -6.359375 C 5.984375 -5.429688 6.644531 -4.703125 7.46875 -4.171875 C 8.300781 -3.640625 9.203125 -3.375 10.171875 -3.375 Z M 10.171875 -3.375 "/></g></g></g><g clip-path="url(#5c2bd9c8fc)"><g fill="#008dd2" fill-opacity="1"><g transform="translate(102.061937, 46.193504)"><g><path d="M 16.828125 -3.5625 L 19.25 -3.5625 L 19.25 4.046875 L 15.390625 4.046875 L 15.390625 0 L 4 0 L 4 4.046875 L 0.140625 4.046875 L 0.140625 -3.5625 L 1.4375 -3.5625 C 2.476562 -4.320312 3.0625 -5.410156 3.1875 -6.828125 L 4.21875 -18.90625 L 16.828125 -18.90625 Z M 12.953125 -3.5625 L 12.953125 -15.34375 L 7.6875 -15.34375 L 7 -6.828125 C 6.863281 -5.347656 6.472656 -4.257812 5.828125 -3.5625 Z M 12.953125 -3.5625 "/></g></g></g></g><g fill="#008dd2" fill-opacity="1"><g transform="translate(121.705543, 46.193504)"><g><path d="M 17.6875 0 L 13.640625 0 L 12.265625 -3.890625 L 5.125 -3.890625 L 3.75 0 L -0.15625 0 L 6.890625 -18.90625 L 10.671875 -18.90625 Z M 10.984375 -7.453125 L 8.6875 -14.09375 L 6.40625 -7.453125 Z M 10.984375 -7.453125 "/></g></g></g></svg>